<svg width="380" height="380" viewBox="0 0 380 380" fill="none" xmlns="http://www.w3.org/2000/svg">
<g filter="url(#filter0_d)">
<rect x="10" width="350" height="350" rx="35" fill="white"/>
</g>
<path d="M86.6133 274V238.453H98.7959C102.816 238.453 105.876 239.259 107.976 240.87C110.075 242.481 111.125 244.882 111.125 248.072C111.125 249.7 110.686 251.165 109.807 252.467C108.928 253.769 107.642 254.778 105.949 255.494C107.87 256.015 109.351 257 110.393 258.448C111.451 259.881 111.979 261.606 111.979 263.624C111.979 266.961 110.905 269.524 108.757 271.314C106.625 273.105 103.565 274 99.5771 274H86.6133ZM92.79 257.96V269.068H99.6504C101.587 269.068 103.101 268.588 104.191 267.628C105.282 266.668 105.827 265.333 105.827 263.624C105.827 259.929 103.939 258.041 100.163 257.96H92.79ZM92.79 253.419H98.8447C100.765 253.419 102.263 252.988 103.337 252.125C104.427 251.246 104.973 250.009 104.973 248.414C104.973 246.656 104.468 245.387 103.459 244.605C102.466 243.824 100.912 243.434 98.7959 243.434H92.79V253.419ZM133.586 271.412C131.844 273.463 129.37 274.488 126.164 274.488C123.299 274.488 121.127 273.65 119.646 271.974C118.181 270.297 117.448 267.872 117.448 264.698V247.584H123.381V264.625C123.381 267.978 124.772 269.654 127.556 269.654C130.437 269.654 132.382 268.621 133.391 266.554V247.584H139.323V274H133.732L133.586 271.412ZM160.173 266.822C160.173 265.764 159.733 264.959 158.854 264.405C157.992 263.852 156.551 263.364 154.533 262.94C152.515 262.517 150.83 261.98 149.479 261.329C146.517 259.897 145.036 257.822 145.036 255.104C145.036 252.825 145.996 250.921 147.917 249.391C149.838 247.861 152.279 247.096 155.241 247.096C158.399 247.096 160.946 247.877 162.883 249.439C164.836 251.002 165.812 253.028 165.812 255.519H159.88C159.88 254.379 159.457 253.435 158.61 252.687C157.764 251.922 156.641 251.539 155.241 251.539C153.939 251.539 152.873 251.84 152.043 252.442C151.229 253.045 150.822 253.85 150.822 254.859C150.822 255.771 151.205 256.479 151.97 256.983C152.735 257.488 154.281 258.001 156.608 258.521C158.936 259.026 160.759 259.636 162.077 260.353C163.412 261.052 164.396 261.899 165.031 262.892C165.682 263.884 166.008 265.089 166.008 266.505C166.008 268.881 165.023 270.81 163.054 272.291C161.084 273.756 158.505 274.488 155.314 274.488C153.15 274.488 151.221 274.098 149.528 273.316C147.836 272.535 146.517 271.461 145.573 270.094C144.629 268.727 144.157 267.254 144.157 265.675H149.919C150 267.075 150.529 268.157 151.506 268.922C152.482 269.671 153.776 270.045 155.388 270.045C156.95 270.045 158.138 269.752 158.952 269.166C159.766 268.564 160.173 267.783 160.173 266.822ZM177.507 274H171.574V247.584H177.507V274ZM171.208 240.724C171.208 239.812 171.493 239.055 172.062 238.453C172.648 237.851 173.479 237.55 174.553 237.55C175.627 237.55 176.457 237.851 177.043 238.453C177.629 239.055 177.922 239.812 177.922 240.724C177.922 241.619 177.629 242.368 177.043 242.97C176.457 243.556 175.627 243.849 174.553 243.849C173.479 243.849 172.648 243.556 172.062 242.97C171.493 242.368 171.208 241.619 171.208 240.724ZM189.494 247.584L189.665 250.636C191.618 248.276 194.182 247.096 197.355 247.096C202.857 247.096 205.656 250.245 205.754 256.544V274H199.821V256.886C199.821 255.209 199.455 253.972 198.723 253.175C198.007 252.361 196.826 251.954 195.183 251.954C192.79 251.954 191.008 253.036 189.836 255.201V274H183.903V247.584H189.494ZM223.454 274.488C219.694 274.488 216.643 273.308 214.299 270.948C211.971 268.572 210.808 265.414 210.808 261.476V260.743C210.808 258.106 211.312 255.755 212.321 253.688C213.347 251.604 214.779 249.985 216.618 248.829C218.457 247.674 220.508 247.096 222.771 247.096C226.368 247.096 229.143 248.243 231.096 250.538C233.065 252.833 234.05 256.08 234.05 260.279V262.672H216.789C216.968 264.853 217.692 266.578 218.962 267.848C220.248 269.117 221.859 269.752 223.796 269.752C226.514 269.752 228.728 268.653 230.437 266.456L233.635 269.508C232.577 271.087 231.161 272.315 229.387 273.194C227.629 274.057 225.651 274.488 223.454 274.488ZM222.746 251.856C221.118 251.856 219.8 252.426 218.791 253.565C217.798 254.705 217.163 256.292 216.887 258.326H228.19V257.887C228.06 255.901 227.531 254.404 226.604 253.395C225.676 252.369 224.39 251.856 222.746 251.856ZM253.483 266.822C253.483 265.764 253.044 264.959 252.165 264.405C251.302 263.852 249.862 263.364 247.844 262.94C245.826 262.517 244.141 261.98 242.79 261.329C239.828 259.897 238.347 257.822 238.347 255.104C238.347 252.825 239.307 250.921 241.228 249.391C243.148 247.861 245.59 247.096 248.552 247.096C251.709 247.096 254.257 247.877 256.193 249.439C258.146 251.002 259.123 253.028 259.123 255.519H253.19C253.19 254.379 252.767 253.435 251.921 252.687C251.075 251.922 249.951 251.539 248.552 251.539C247.25 251.539 246.184 251.84 245.354 252.442C244.54 253.045 244.133 253.85 244.133 254.859C244.133 255.771 244.515 256.479 245.28 256.983C246.045 257.488 247.591 258.001 249.919 258.521C252.246 259.026 254.069 259.636 255.388 260.353C256.722 261.052 257.707 261.899 258.342 262.892C258.993 263.884 259.318 265.089 259.318 266.505C259.318 268.881 258.334 270.81 256.364 272.291C254.395 273.756 251.815 274.488 248.625 274.488C246.46 274.488 244.532 274.098 242.839 273.316C241.146 272.535 239.828 271.461 238.884 270.094C237.94 268.727 237.468 267.254 237.468 265.675H243.229C243.311 267.075 243.84 268.157 244.816 268.922C245.793 269.671 247.087 270.045 248.698 270.045C250.261 270.045 251.449 269.752 252.263 269.166C253.076 268.564 253.483 267.783 253.483 266.822ZM279.313 266.822C279.313 265.764 278.874 264.959 277.995 264.405C277.132 263.852 275.692 263.364 273.674 262.94C271.656 262.517 269.971 261.98 268.62 261.329C265.658 259.897 264.177 257.822 264.177 255.104C264.177 252.825 265.137 250.921 267.058 249.391C268.978 247.861 271.42 247.096 274.382 247.096C277.539 247.096 280.087 247.877 282.023 249.439C283.977 251.002 284.953 253.028 284.953 255.519H279.021C279.021 254.379 278.597 253.435 277.751 252.687C276.905 251.922 275.782 251.539 274.382 251.539C273.08 251.539 272.014 251.84 271.184 252.442C270.37 253.045 269.963 253.85 269.963 254.859C269.963 255.771 270.345 256.479 271.11 256.983C271.875 257.488 273.422 258.001 275.749 258.521C278.076 259.026 279.899 259.636 281.218 260.353C282.552 261.052 283.537 261.899 284.172 262.892C284.823 263.884 285.148 265.089 285.148 266.505C285.148 268.881 284.164 270.81 282.194 272.291C280.225 273.756 277.645 274.488 274.455 274.488C272.29 274.488 270.362 274.098 268.669 273.316C266.976 272.535 265.658 271.461 264.714 270.094C263.77 268.727 263.298 267.254 263.298 265.675H269.06C269.141 267.075 269.67 268.157 270.646 268.922C271.623 269.671 272.917 270.045 274.528 270.045C276.091 270.045 277.279 269.752 278.093 269.166C278.907 268.564 279.313 267.783 279.313 266.822Z" fill="#0032C1"/>
<path d="M232.701 200C230.741 200 229.108 198.36 229.108 196.392V180.317C229.108 176.053 226.822 172.444 222.902 170.804L205.263 162.931H202.323L201.669 163.915C198.729 170.148 192.523 173.757 185.663 174.085C178.804 174.085 172.597 170.476 169.657 163.915L169.004 162.931H166.064L148.425 170.804C144.832 172.444 142.218 176.053 142.218 180.317V196.392C142.218 198.36 140.585 200 138.625 200C136.665 200 135.032 198.36 135.032 196.392V180.317C135.032 174.741 137.645 169.492 142.218 166.212L146.792 162.931H123.273L113.8 167.196C112.166 167.852 111.186 169.492 111.186 171.132V179.989C111.186 181.958 109.553 183.598 107.593 183.598C105.633 183.598 104 181.958 104 179.989V171.132C104 166.54 106.613 162.603 110.533 160.963L116.086 158.667C121.639 156.042 121.639 156.042 122.293 156.042H139.932C145.812 156.042 145.812 156.042 146.138 156.37L154.958 160.307L163.451 156.37C164.104 156.042 164.104 156.042 166.391 156.042H171.291C172.924 156.042 174.23 157.026 174.557 158.667C175.864 163.587 180.11 166.868 185.337 166.868C190.563 166.868 194.81 163.587 196.116 158.667C196.443 157.026 197.749 156.042 199.383 156.042H205.916C206.569 156.042 206.896 156.042 211.142 158.011L216.042 160.307L220.942 158.011C225.515 156.042 225.515 156.042 226.168 156.042H243.808C249.687 156.042 249.687 156.042 250.014 156.37L260.467 160.963C264.387 162.931 267 166.868 267 171.46V180.317C267 182.286 265.367 183.926 263.407 183.926C261.447 183.926 259.814 182.286 259.814 180.317V171.132C259.814 169.492 258.834 167.852 257.2 167.196L247.727 162.931H224.208L228.782 166.212C233.355 169.492 235.968 174.741 235.968 180.317V196.392C236.295 198.36 234.661 200 232.701 200ZM237.601 149.153C227.148 149.153 218.655 140.624 218.655 130.127C218.655 119.63 227.148 111.101 237.601 111.101C248.054 111.101 256.547 119.63 256.547 130.127C256.547 140.624 248.054 149.153 237.601 149.153ZM237.601 118.317C231.068 118.317 225.842 123.566 225.842 130.127C225.842 136.688 231.068 141.937 237.601 141.937C244.134 141.937 249.361 136.688 249.361 130.127C249.361 123.894 244.134 118.317 237.601 118.317ZM133.725 149.153C123.273 149.153 114.78 140.624 114.78 130.127C114.78 119.63 123.273 111.101 133.725 111.101C144.178 111.101 152.671 119.63 152.671 130.127C152.671 140.624 144.178 149.153 133.725 149.153ZM133.725 118.317C127.192 118.317 121.966 123.566 121.966 130.127C121.966 136.688 127.192 141.937 133.725 141.937C140.259 141.937 145.485 136.688 145.485 130.127C145.812 123.894 140.259 118.317 133.725 118.317ZM185.663 138.328C168.677 138.328 154.631 124.222 154.631 107.164C154.631 90.1058 168.677 76 185.663 76C202.649 76 216.695 90.1058 216.695 107.164C216.695 124.222 202.976 138.328 185.663 138.328ZM185.663 83.2169C172.271 83.2169 161.491 94.0423 161.491 107.492C161.491 120.942 172.271 131.767 185.663 131.767C199.056 131.767 209.836 120.942 209.836 107.492C209.836 94.0423 199.056 83.2169 185.663 83.2169Z" fill="#0032C1"/>
<defs>
<filter id="filter0_d" x="0" y="0" width="380" height="380" filterUnits="userSpaceOnUse" color-interpolation-filters="sRGB">
<feFlood flood-opacity="0" result="BackgroundImageFix"/>
<feColorMatrix in="SourceAlpha" type="matrix" values="0 0 0 0 0 0 0 0 0 0 0 0 0 0 0 0 0 0 127 0"/>
<feMorphology radius="2" operator="dilate" in="SourceAlpha" result="effect1_dropShadow"/>
<feOffset dx="5" dy="15"/>
<feGaussianBlur stdDeviation="6.5"/>
<feColorMatrix type="matrix" values="0 0 0 0 0 0 0 0 0 0 0 0 0 0 0 0 0 0 0.25 0"/>
<feBlend mode="normal" in2="BackgroundImageFix" result="effect1_dropShadow"/>
<feBlend mode="normal" in="SourceGraphic" in2="effect1_dropShadow" result="shape"/>
</filter>
</defs>
</svg>
