<svg width="747" height="252" viewBox="0 0 747 252" fill="none" xmlns="http://www.w3.org/2000/svg">
<g filter="url(#filter0_d)">
<rect x="9" width="721" height="227" rx="28.3601" fill="white"/>
</g>
<path d="M237.633 185.006V144.682H252.118C257.306 144.682 261.248 145.633 263.944 147.535C266.658 149.436 268.015 152.197 268.015 155.815C268.015 157.902 267.535 159.684 266.575 161.161C265.615 162.638 264.203 163.727 262.338 164.429C264.443 164.983 266.058 166.017 267.184 167.531C268.311 169.045 268.874 170.891 268.874 173.07C268.874 177.021 267.618 179.994 265.107 181.988C262.615 183.963 258.913 184.97 254.001 185.006H237.633ZM247.355 167.863V177.529H253.724C255.479 177.529 256.826 177.132 257.768 176.338C258.71 175.525 259.18 174.39 259.18 172.931C259.18 169.571 257.51 167.881 254.168 167.863H247.355ZM247.355 161.493H252.423C254.546 161.475 256.06 161.087 256.965 160.33C257.87 159.573 258.322 158.456 258.322 156.979C258.322 155.28 257.833 154.061 256.854 153.323C255.875 152.566 254.297 152.187 252.118 152.187H247.355V161.493ZM305.875 144.682V171.076C305.875 174.067 305.238 176.661 303.964 178.858C302.69 181.037 300.862 182.699 298.48 183.843C296.098 184.988 293.283 185.56 290.033 185.56C285.122 185.56 281.254 184.286 278.429 181.738C275.604 179.19 274.164 175.701 274.108 171.27V144.682H283.885V171.463C283.996 175.876 286.045 178.083 290.033 178.083C292.046 178.083 293.569 177.529 294.603 176.421C295.637 175.313 296.154 173.513 296.154 171.02V144.682H305.875ZM332.767 174.288C332.767 172.867 332.259 171.759 331.244 170.965C330.247 170.171 328.484 169.349 325.954 168.5C323.425 167.651 321.357 166.829 319.75 166.035C314.525 163.469 311.913 159.942 311.913 155.455C311.913 153.221 312.559 151.255 313.851 149.556C315.162 147.839 317.009 146.51 319.39 145.568C321.772 144.608 324.449 144.128 327.422 144.128C330.321 144.128 332.915 144.645 335.204 145.679C337.512 146.713 339.303 148.19 340.577 150.11C341.851 152.012 342.488 154.191 342.488 156.646H332.795C332.795 155.003 332.287 153.729 331.272 152.824C330.275 151.92 328.918 151.467 327.2 151.467C325.465 151.467 324.089 151.855 323.074 152.631C322.077 153.388 321.578 154.357 321.578 155.539C321.578 156.572 322.132 157.514 323.24 158.363C324.348 159.194 326.296 160.062 329.084 160.967C331.872 161.853 334.161 162.813 335.952 163.847C340.31 166.358 342.488 169.82 342.488 174.233C342.488 177.759 341.159 180.529 338.5 182.542C335.841 184.554 332.195 185.56 327.561 185.56C324.292 185.56 321.329 184.979 318.67 183.816C316.03 182.634 314.036 181.028 312.688 178.997C311.359 176.947 310.694 174.593 310.694 171.934H320.443C320.443 174.094 320.997 175.692 322.104 176.726C323.231 177.741 325.049 178.249 327.561 178.249C329.167 178.249 330.432 177.907 331.355 177.224C332.296 176.522 332.767 175.544 332.767 174.288ZM357.832 185.006H348.138V144.682H357.832V185.006ZM398.267 185.006H388.601L374.31 159.914V185.006H364.589V144.682H374.31L388.574 169.774V144.682H398.267V185.006ZM429.424 167.918H414.136V177.529H432.194V185.006H404.415V144.682H432.249V152.187H414.136V160.69H429.424V167.918ZM456.954 174.288C456.954 172.867 456.446 171.759 455.43 170.965C454.433 170.171 452.67 169.349 450.141 168.5C447.611 167.651 445.543 166.829 443.937 166.035C438.712 163.469 436.099 159.942 436.099 155.455C436.099 153.221 436.745 151.255 438.038 149.556C439.349 147.839 441.195 146.51 443.577 145.568C445.959 144.608 448.636 144.128 451.608 144.128C454.507 144.128 457.101 144.645 459.391 145.679C461.699 146.713 463.49 148.19 464.764 150.11C466.038 152.012 466.675 154.191 466.675 156.646H456.981C456.981 155.003 456.474 153.729 455.458 152.824C454.461 151.92 453.104 151.467 451.387 151.467C449.651 151.467 448.276 151.855 447.26 152.631C446.263 153.388 445.765 154.357 445.765 155.539C445.765 156.572 446.319 157.514 447.426 158.363C448.534 159.194 450.482 160.062 453.27 160.967C456.058 161.853 458.348 162.813 460.139 163.847C464.496 166.358 466.675 169.82 466.675 174.233C466.675 177.759 465.345 180.529 462.687 182.542C460.028 184.554 456.381 185.56 451.747 185.56C448.479 185.56 445.515 184.979 442.857 183.816C440.216 182.634 438.222 181.028 436.874 178.997C435.545 176.947 434.88 174.593 434.88 171.934H444.629C444.629 174.094 445.183 175.692 446.291 176.726C447.417 177.741 449.236 178.249 451.747 178.249C453.353 178.249 454.618 177.907 455.541 177.224C456.483 176.522 456.954 175.544 456.954 174.288ZM492.459 174.288C492.459 172.867 491.951 171.759 490.936 170.965C489.939 170.171 488.176 169.349 485.646 168.5C483.117 167.651 481.049 166.829 479.442 166.035C474.217 163.469 471.604 159.942 471.604 155.455C471.604 153.221 472.251 151.255 473.543 149.556C474.854 147.839 476.7 146.51 479.082 145.568C481.464 144.608 484.141 144.128 487.114 144.128C490.013 144.128 492.607 144.645 494.896 145.679C497.204 146.713 498.995 148.19 500.269 150.11C501.543 152.012 502.18 154.191 502.18 156.646H492.487C492.487 155.003 491.979 153.729 490.964 152.824C489.967 151.92 488.609 151.467 486.892 151.467C485.157 151.467 483.781 151.855 482.766 152.631C481.769 153.388 481.27 154.357 481.27 155.539C481.27 156.572 481.824 157.514 482.932 158.363C484.04 159.194 485.988 160.062 488.776 160.967C491.564 161.853 493.853 162.813 495.644 163.847C500.002 166.358 502.18 169.82 502.18 174.233C502.18 177.759 500.851 180.529 498.192 182.542C495.533 184.554 491.887 185.56 487.252 185.56C483.984 185.56 481.021 184.979 478.362 183.816C475.722 182.634 473.728 181.028 472.38 178.997C471.051 176.947 470.386 174.593 470.386 171.934H480.135C480.135 174.094 480.689 175.692 481.796 176.726C482.923 177.741 484.741 178.249 487.252 178.249C488.859 178.249 490.123 177.907 491.047 177.224C491.988 176.522 492.459 175.544 492.459 174.288Z" fill="#0032C1"/>
<path d="M369.905 50.4244V35.5691H332.767V102.418H407.044V50.4244H369.905ZM347.622 94.9903H340.195V87.5627H347.622V94.9903ZM347.622 80.135H340.195V72.7074H347.622V80.135ZM347.622 65.2797H340.195V57.8521H347.622V65.2797ZM347.622 50.4244H340.195V42.9967H347.622V50.4244ZM362.478 94.9903H355.05V87.5627H362.478V94.9903ZM362.478 80.135H355.05V72.7074H362.478V80.135ZM362.478 65.2797H355.05V57.8521H362.478V65.2797ZM362.478 50.4244H355.05V42.9967H362.478V50.4244ZM399.616 94.9903H369.905V87.5627H377.333V80.135H369.905V72.7074H377.333V65.2797H369.905V57.8521H399.616V94.9903ZM392.188 65.2797H384.761V72.7074H392.188V65.2797ZM392.188 80.135H384.761V87.5627H392.188V80.135Z" fill="#0032C1"/>
<defs>
<filter id="filter0_d" x="0.897106" y="0" width="745.309" height="251.309" filterUnits="userSpaceOnUse" color-interpolation-filters="sRGB">
<feFlood flood-opacity="0" result="BackgroundImageFix"/>
<feColorMatrix in="SourceAlpha" type="matrix" values="0 0 0 0 0 0 0 0 0 0 0 0 0 0 0 0 0 0 127 0"/>
<feMorphology radius="1.62058" operator="dilate" in="SourceAlpha" result="effect1_dropShadow"/>
<feOffset dx="4.05145" dy="12.1543"/>
<feGaussianBlur stdDeviation="5.26688"/>
<feColorMatrix type="matrix" values="0 0 0 0 0 0 0 0 0 0 0 0 0 0 0 0 0 0 0.25 0"/>
<feBlend mode="normal" in2="BackgroundImageFix" result="effect1_dropShadow"/>
<feBlend mode="normal" in="SourceGraphic" in2="effect1_dropShadow" result="shape"/>
</filter>
</defs>
</svg>
