<svg width="747" height="252" viewBox="0 0 747 252" fill="none" xmlns="http://www.w3.org/2000/svg">
<g filter="url(#filter0_d)">
<rect x="9" width="721" height="227" rx="28.3601" fill="white"/>
</g>
<path d="M347.478 180.026H337.812L323.522 154.934V180.026H313.8V139.701H323.522L337.785 164.793V139.701H347.478V180.026ZM386.639 175.041C385.144 176.702 382.956 178.041 380.076 179.056C377.195 180.072 374.038 180.58 370.604 180.58C365.323 180.58 361.104 178.964 357.947 175.733C354.79 172.502 353.1 168.006 352.879 162.245L352.851 158.756C352.851 154.786 353.553 151.324 354.956 148.37C356.359 145.397 358.362 143.117 360.966 141.529C363.588 139.923 366.616 139.12 370.05 139.12C375.072 139.12 378.968 140.274 381.737 142.582C384.525 144.871 386.15 148.296 386.612 152.857H377.251C376.918 150.604 376.198 148.998 375.09 148.038C373.983 147.077 372.413 146.597 370.382 146.597C367.945 146.597 366.062 147.631 364.732 149.699C363.403 151.767 362.729 154.721 362.711 158.562V160.999C362.711 165.024 363.394 168.052 364.76 170.083C366.145 172.096 368.314 173.102 371.268 173.102C373.798 173.102 375.681 172.539 376.918 171.412V165.153H370.161V158.479H386.639V175.041ZM426.438 160.694C426.438 164.627 425.708 168.107 424.25 171.136C422.791 174.164 420.714 176.499 418.018 178.142C415.341 179.767 412.285 180.58 408.851 180.58C405.417 180.58 402.37 179.795 399.712 178.226C397.053 176.638 394.976 174.376 393.48 171.44C392.003 168.504 391.228 165.135 391.154 161.331V159.06C391.154 155.109 391.874 151.629 393.314 148.619C394.773 145.591 396.85 143.255 399.545 141.612C402.26 139.969 405.343 139.147 408.796 139.147C412.212 139.147 415.258 139.96 417.935 141.584C420.612 143.209 422.69 145.526 424.167 148.536C425.662 151.527 426.419 154.961 426.438 158.839V160.694ZM416.55 159.005C416.55 154.998 415.877 151.961 414.529 149.893C413.199 147.807 411.288 146.764 408.796 146.764C403.921 146.764 401.346 150.419 401.069 157.731L401.041 160.694C401.041 164.646 401.696 167.683 403.007 169.806C404.318 171.929 406.266 172.991 408.851 172.991C411.307 172.991 413.199 171.948 414.529 169.862C415.858 167.775 416.532 164.775 416.55 160.861V159.005Z" fill="#0032C1"/>
<path d="M369.905 108.461L364.52 103.558C345.394 86.2148 332.767 74.7762 332.767 60.7379C332.767 49.2994 341.754 40.3119 353.193 40.3119C359.655 40.3119 365.857 43.3201 369.905 48.0738C373.953 43.3201 380.155 40.3119 386.617 40.3119C398.056 40.3119 407.043 49.2994 407.043 60.7379C407.043 74.7762 394.416 86.2148 375.29 103.596L369.905 108.461Z" fill="#0032C1"/>
<defs>
<filter id="filter0_d" x="0.897106" y="0" width="745.309" height="251.309" filterUnits="userSpaceOnUse" color-interpolation-filters="sRGB">
<feFlood flood-opacity="0" result="BackgroundImageFix"/>
<feColorMatrix in="SourceAlpha" type="matrix" values="0 0 0 0 0 0 0 0 0 0 0 0 0 0 0 0 0 0 127 0"/>
<feMorphology radius="1.62058" operator="dilate" in="SourceAlpha" result="effect1_dropShadow"/>
<feOffset dx="4.05145" dy="12.1543"/>
<feGaussianBlur stdDeviation="5.26688"/>
<feColorMatrix type="matrix" values="0 0 0 0 0 0 0 0 0 0 0 0 0 0 0 0 0 0 0.25 0"/>
<feBlend mode="normal" in2="BackgroundImageFix" result="effect1_dropShadow"/>
<feBlend mode="normal" in="SourceGraphic" in2="effect1_dropShadow" result="shape"/>
</filter>
</defs>
</svg>
