<svg width="380" height="380" viewBox="0 0 380 380" fill="none" xmlns="http://www.w3.org/2000/svg">
<g filter="url(#filter0_d)">
<rect x="10" width="350" height="350" rx="35" fill="white"/>
</g>
<path d="M163.812 274H157.635L141.79 248.78V274H135.613V238.453H141.79L157.684 263.771V238.453H163.812V274ZM198.357 269.386C197.072 271.062 195.289 272.332 193.011 273.194C190.732 274.057 188.144 274.488 185.247 274.488C182.269 274.488 179.632 273.813 177.337 272.462C175.042 271.111 173.268 269.182 172.015 266.676C170.778 264.153 170.135 261.215 170.086 257.862V255.079C170.086 249.708 171.372 245.517 173.943 242.506C176.515 239.479 180.104 237.965 184.71 237.965C188.665 237.965 191.806 238.941 194.134 240.895C196.461 242.848 197.861 245.663 198.333 249.342H192.278C191.595 245.061 189.113 242.921 184.832 242.921C182.065 242.921 179.957 243.922 178.509 245.924C177.076 247.91 176.336 250.831 176.287 254.688V257.423C176.287 261.264 177.093 264.251 178.704 266.383C180.332 268.499 182.586 269.557 185.467 269.557C188.624 269.557 190.87 268.84 192.205 267.408V260.45H184.881V255.763H198.357V269.386ZM233.514 257.154C233.514 260.637 232.911 263.697 231.707 266.334C230.503 268.954 228.777 270.973 226.531 272.389C224.301 273.788 221.73 274.488 218.816 274.488C215.936 274.488 213.364 273.788 211.102 272.389C208.855 270.973 207.114 268.963 205.877 266.358C204.656 263.754 204.038 260.751 204.021 257.35V255.348C204.021 251.881 204.632 248.821 205.853 246.168C207.09 243.515 208.823 241.489 211.053 240.089C213.299 238.673 215.87 237.965 218.768 237.965C221.665 237.965 224.228 238.665 226.458 240.064C228.704 241.448 230.438 243.45 231.658 246.07C232.879 248.674 233.497 251.71 233.514 255.177V257.154ZM227.337 255.299C227.337 251.36 226.588 248.341 225.091 246.241C223.61 244.142 221.502 243.092 218.768 243.092C216.098 243.092 214.007 244.142 212.493 246.241C210.996 248.325 210.231 251.279 210.198 255.104V257.154C210.198 261.061 210.955 264.08 212.469 266.212C213.999 268.344 216.115 269.41 218.816 269.41C221.551 269.41 223.65 268.368 225.115 266.285C226.596 264.202 227.337 261.158 227.337 257.154V255.299Z" fill="#0032C1"/>
<path d="M121.466 105.995C122.927 108.535 124.387 111.074 126.213 113.976C128.769 112.525 130.959 111.074 133.515 109.986C149.946 100.553 166.742 90.7579 183.173 81.3255C184.633 80.5999 186.094 80.5999 187.554 81.3255C205.811 91.8463 224.432 102.367 242.688 113.251C243.054 113.614 243.784 113.976 244.514 114.339C245.975 111.8 247.435 108.897 249.261 106.358C247.435 105.269 245.609 104.181 243.784 103.093C224.797 92.2091 206.176 81.3255 187.189 70.4418C186.094 69.7162 185.363 69.7162 183.903 70.4418C175.87 75.1581 167.472 79.8743 159.439 84.5905C157.249 86.0417 156.153 85.6789 155.423 84.5905C154.693 83.5022 155.423 82.4138 157.614 80.9627C166.377 75.8836 175.14 70.8046 183.538 65.7256C184.998 65 186.094 65 187.554 65.7256C193.761 69.3535 200.334 72.9813 206.541 76.6092C206.906 76.972 207.636 77.3348 208.366 77.6976C208.366 76.972 208.366 76.2464 208.366 75.5209C208.366 72.9813 208.366 70.079 208.366 67.5395C208.366 65.3628 209.097 65 210.922 65C215.304 65 219.685 65 223.702 65C225.893 65 226.623 65.7256 226.623 67.9023C226.623 74.4325 226.623 80.5999 226.623 87.1301C226.623 88.2184 226.988 88.944 228.083 89.6696C235.751 94.023 243.784 98.7393 251.451 103.093C254.372 104.544 254.372 105.269 252.547 108.172C250.721 111.074 248.896 114.339 247.07 117.241C245.609 119.781 244.879 119.781 242.323 118.33C223.702 107.446 205.08 96.9253 186.459 86.0417C184.998 85.3161 184.268 85.3161 182.808 86.0417C164.186 96.9253 145.565 107.446 126.943 118.33C124.387 119.781 123.657 119.781 122.196 117.241C120.371 113.976 118.545 110.711 116.72 107.809C115.624 105.632 115.624 104.907 117.815 103.818C128.404 97.2881 138.262 91.4835 148.12 85.6789C149.581 84.9533 151.041 84.9533 151.407 86.0417C152.137 87.4929 151.407 88.5812 149.946 89.3068C141.183 94.3858 132.055 99.4649 123.292 104.907C122.562 105.269 122.196 105.632 121.466 105.995ZM222.241 86.0417C222.241 80.2371 222.241 75.1581 222.241 69.7162C222.241 68.6279 221.876 68.6279 220.781 68.6279C218.225 68.6279 215.669 68.6279 213.113 68.6279C212.018 68.6279 211.653 68.9907 211.653 70.079C211.653 72.9813 211.653 76.2464 211.653 79.1487C211.653 79.5115 211.653 80.2371 212.018 80.5999C215.669 82.051 218.955 83.865 222.241 86.0417Z" fill="#0032C1" stroke="#0032C1" stroke-width="2.69" stroke-miterlimit="10"/>
<path d="M233.56 129.576C228.448 118.33 214.208 112.525 203.255 116.878C198.508 118.692 194.492 122.32 191.205 126.311C189.015 129.213 186.824 132.478 184.633 135.743C184.268 134.655 183.538 133.929 183.173 133.204C180.617 128.488 177.331 124.497 173.314 120.869C160.535 109.985 144.469 116.516 138.262 125.948C133.88 132.841 132.785 140.097 133.88 148.078C135.341 158.236 139.722 166.943 145.565 174.925C155.423 188.348 168.568 198.143 183.538 205.762C184.268 206.124 185.729 206.124 186.459 205.399C196.317 200.32 205.811 193.79 213.843 186.171C214.939 185.445 215.669 184.357 216.399 183.269C220.781 179.641 225.893 171.297 225.893 171.297C229.179 166.218 232.1 161.139 233.56 155.334C236.846 146.627 237.577 138.283 233.56 129.576ZM226.988 162.227C225.893 164.404 224.432 166.943 222.971 169.12C220.05 174.199 215.669 178.915 215.669 178.915C207.271 188.348 197.413 195.241 186.459 201.408C185.363 201.771 184.998 201.771 183.903 201.408C176.965 197.78 170.758 193.427 164.551 188.71C154.693 180.729 146.66 171.297 141.548 159.687C138.627 152.794 136.801 145.539 138.262 137.92C139.722 129.213 144.834 123.046 153.597 120.869C161.995 118.33 168.568 121.595 174.044 127.399C178.061 131.753 180.982 136.469 183.173 141.911C183.538 142.636 184.633 143.725 185.363 143.725C186.094 143.725 187.189 142.636 187.554 141.911C189.745 136.832 192.666 132.116 196.317 127.762C200.334 123.409 204.715 120.144 210.922 120.144C222.241 119.781 231.735 128.85 232.465 140.46C232.465 148.078 230.639 155.334 226.988 162.227Z" fill="#0032C1" stroke="#0032C1" stroke-width="2.69" stroke-miterlimit="10"/>
<defs>
<filter id="filter0_d" x="0" y="0" width="380" height="380" filterUnits="userSpaceOnUse" color-interpolation-filters="sRGB">
<feFlood flood-opacity="0" result="BackgroundImageFix"/>
<feColorMatrix in="SourceAlpha" type="matrix" values="0 0 0 0 0 0 0 0 0 0 0 0 0 0 0 0 0 0 127 0"/>
<feMorphology radius="2" operator="dilate" in="SourceAlpha" result="effect1_dropShadow"/>
<feOffset dx="5" dy="15"/>
<feGaussianBlur stdDeviation="6.5"/>
<feColorMatrix type="matrix" values="0 0 0 0 0 0 0 0 0 0 0 0 0 0 0 0 0 0 0.25 0"/>
<feBlend mode="normal" in2="BackgroundImageFix" result="effect1_dropShadow"/>
<feBlend mode="normal" in="SourceGraphic" in2="effect1_dropShadow" result="shape"/>
</filter>
</defs>
</svg>
