<svg width="206" height="206" viewBox="0 0 206 206" fill="none" xmlns="http://www.w3.org/2000/svg">
<path d="M154.436 69.1371C151.265 65.7936 145.979 65.6463 142.63 68.8252L89.315 119.387L63.8852 93.2781C60.6645 89.9736 55.3837 89.9012 52.0764 93.1224C48.772 96.3403 48.7024 101.627 51.9203 104.931L83.0988 136.942C84.7327 138.621 86.9041 139.467 89.0812 139.467C91.1468 139.467 93.2125 138.704 94.8299 137.176L154.124 80.9434C157.47 77.7697 157.612 72.4834 154.436 69.1371Z" fill="#00A344"/>
<path d="M103 0C46.2052 0 0 46.2052 0 103C0 159.795 46.2052 206 103 206C159.795 206 206 159.795 206 103C206 46.2052 159.795 0 103 0ZM103 189.298C55.4168 189.298 16.7025 150.586 16.7025 103C16.7025 55.4168 55.4164 16.7025 103 16.7025C150.586 16.7025 189.298 55.4164 189.298 103C189.298 150.586 150.586 189.298 103 189.298Z" fill="#00A344"/>
</svg>
