<?xml version="1.0" standalone="no"?>
<!DOCTYPE svg PUBLIC "-//W3C//DTD SVG 20010904//EN"
 "http://www.w3.org/TR/2001/REC-SVG-20010904/DTD/svg10.dtd">
<svg version="1.0" xmlns="http://www.w3.org/2000/svg"
 width="361.000000pt" height="387.000000pt" viewBox="0 0 361.000000 387.000000"
 preserveAspectRatio="xMidYMid meet">

<g transform="translate(0.000000,387.000000) scale(0.100000,-0.100000)"
fill="#000000" stroke="none">
<path d="M1959 3706 c-3 -3 -45 -7 -94 -11 -191 -11 -260 -17 -265 -20 -4 -3
-147 -12 -283 -19 l-32 -2 -3 -107 c-1 -59 -4 -107 -7 -107 -64 0 -345 -52
-345 -64 0 -12 -113 -86 -130 -86 -5 0 -14 -8 -19 -18 -8 -15 -3 -30 22 -68
18 -27 38 -61 44 -76 7 -16 17 -28 22 -28 5 0 37 16 71 35 34 19 66 35 71 35
5 0 9 7 9 15 0 21 -5 20 -78 -21 -43 -24 -67 -33 -74 -26 -16 16 -3 28 62 63
33 17 60 36 60 40 0 15 -13 11 -82 -26 -54 -29 -67 -33 -72 -20 -4 11 14 27
59 56 59 37 80 59 56 59 -5 0 -37 -18 -71 -41 -45 -29 -65 -38 -73 -30 -6 6
-9 12 -6 14 2 2 22 17 44 34 43 33 112 69 119 62 2 -2 36 -67 75 -144 40 -77
82 -156 93 -175 37 -62 70 -122 144 -266 70 -136 72 -142 55 -158 -17 -16 -19
-15 -36 10 -12 19 -14 29 -6 37 6 6 11 17 11 25 0 12 -3 12 -15 2 -13 -11 -18
-10 -30 6 -8 12 -10 23 -4 29 14 14 11 28 -6 21 -20 -7 -37 27 -29 59 5 20 3
24 -10 19 -19 -7 -51 55 -35 71 14 14 11 28 -5 22 -22 -9 -38 17 -30 48 5 22
4 26 -12 23 -15 -2 -20 4 -22 30 -2 19 -9 32 -17 32 -15 0 -31 43 -26 73 3 19
-10 22 -25 7 -6 -6 -35 -13 -65 -15 -128 -10 -336 -134 -360 -215 -10 -32 -8
-41 20 -88 17 -29 31 -57 31 -61 0 -5 7 -22 15 -37 22 -43 19 -52 -22 -56 -35
-3 -38 -5 -36 -33 20 -315 27 -403 35 -420 8 -19 5 73 -11 305 -4 58 -5 108
-2 112 4 4 53 -6 109 -22 56 -16 112 -31 125 -33 12 -2 29 -7 37 -10 25 -9
262 -66 304 -73 74 -11 86 -20 86 -61 1 -21 3 -63 5 -93 3 -30 4 -224 3 -430
-1 -206 -2 -439 -2 -516 l0 -142 -75 33 c-81 34 -234 88 -298 104 -21 6 -72
19 -113 29 -41 11 -94 25 -117 33 l-43 14 0 118 0 118 35 -7 c28 -5 35 -3 35
10 0 12 -9 16 -35 16 l-35 0 0 100 0 100 45 0 c57 0 59 18 2 22 -39 3 -42 5
-48 38 -4 19 -7 -26 -8 -100 -1 -74 -2 -201 -4 -282 l-2 -148 25 -10 c14 -5
88 -26 165 -45 132 -34 308 -90 330 -105 6 -3 50 -21 99 -40 77 -28 94 -31
120 -22 53 19 196 44 212 38 12 -5 15 -19 14 -59 -5 -116 -1 -154 18 -160 9
-3 37 -13 62 -22 126 -46 318 -50 420 -9 77 31 81 39 78 140 l-3 89 35 3 c45
5 217 -15 299 -34 106 -25 147 -21 228 20 39 20 77 36 83 36 8 0 10 9 6 27 -4
16 -9 60 -13 100 l-6 72 39 9 c22 6 74 18 117 28 112 26 110 22 97 131 -5 51
-8 130 -5 175 12 205 14 278 6 278 -17 0 -29 -361 -18 -515 l2 -29 -110 -27
c-60 -15 -114 -23 -119 -19 -4 4 -9 202 -10 439 -1 423 -1 432 -21 436 -11 2
-69 6 -130 10 -60 3 -141 8 -180 11 -93 8 -385 9 -410 1 -11 -3 -26 -6 -33 -6
-10 -1 -12 -32 -11 -133 0 -73 0 -162 0 -198 l-1 -65 -157 0 c-166 0 -247 -14
-262 -44 -4 -9 -7 -160 -6 -337 l2 -321 -91 -12 c-50 -7 -107 -20 -125 -27
-45 -19 -61 -12 -61 26 0 26 5 31 30 36 37 8 29 24 -11 24 -26 0 -30 3 -27 23
2 16 11 23 31 25 37 4 35 22 -3 22 -25 0 -29 3 -26 23 2 15 12 24 32 28 l29 7
-27 1 c-24 1 -28 5 -28 30 0 26 4 30 33 34 l32 4 -32 1 c-21 1 -34 7 -34 17
-1 8 -2 20 -3 27 -1 7 10 15 24 19 24 7 24 7 3 8 -18 1 -23 7 -23 26 0 20 5
25 26 25 14 0 23 4 19 10 -3 5 -15 10 -26 10 -33 0 -24 39 11 46 17 4 30 10
30 15 0 5 -13 9 -30 9 -23 0 -30 4 -30 20 0 13 7 20 20 20 11 0 20 5 20 10 0
6 -9 10 -20 10 -13 0 -20 7 -20 20 0 15 7 20 25 20 14 0 25 5 25 10 0 6 -11
10 -25 10 -28 0 -34 24 -9 38 14 8 14 10 0 21 -24 20 -19 41 8 41 35 0 42 18
9 22 -22 2 -29 9 -31 31 -3 23 0 27 22 27 33 0 34 16 1 24 -31 8 -35 46 -5 46
11 0 20 4 20 9 0 5 -9 11 -20 14 -26 7 -26 27 1 27 12 0 19 5 17 13 -3 6 -11
12 -19 12 -8 0 -14 9 -14 20 0 13 7 20 20 20 28 0 25 19 -3 23 -16 2 -22 9
-19 20 2 9 9 16 15 15 7 -2 12 2 12 7 0 6 -7 10 -15 10 -8 0 -15 9 -15 20 0
13 7 20 20 20 11 0 20 5 20 10 0 10 -14 14 -38 11 -26 -4 -9 43 18 49 17 4 21
8 12 14 -6 4 -17 4 -22 1 -5 -3 -10 3 -10 13 0 24 7 25 465 52 727 42 912 56
1085 85 47 8 103 15 125 17 l40 3 10 -65 c6 -36 9 -105 7 -155 -3 -84 -5 -240
-3 -258 1 -5 4 -6 9 -4 12 8 15 483 2 507 -7 13 -21 20 -40 20 -17 0 -30 2
-30 4 0 2 25 56 55 121 30 64 55 118 55 121 0 2 18 43 40 90 23 47 50 108 61
135 10 28 40 92 64 142 25 50 45 98 45 108 0 13 -12 22 -41 29 -23 6 -67 25
-100 41 -32 16 -84 37 -116 45 -31 8 -84 26 -117 40 -34 14 -74 30 -91 34 -16
5 -68 21 -115 35 -47 14 -86 22 -88 18 -1 -4 -17 -50 -35 -102 -19 -52 -40
-98 -48 -102 -8 -4 -31 -15 -51 -25 -21 -10 -38 -23 -38 -28 0 -15 -91 -249
-101 -261 -9 -9 -13 92 -9 256 l2 86 -36 22 c-19 12 -51 25 -70 28 -19 3 -35
8 -34 12 0 3 0 52 -1 109 l-1 102 -119 0 c-69 0 -122 4 -126 10 -6 10 -19 13
-26 6z m-16 -41 c3 -7 6 -52 6 -98 l0 -85 -77 -11 c-46 -7 -88 -19 -104 -31
-31 -23 -52 -26 -46 -7 2 6 25 23 51 37 43 23 47 28 47 63 0 37 0 37 -42 37
-51 0 -257 -17 -310 -26 -32 -5 -38 -10 -38 -30 0 -21 4 -24 40 -24 48 0 55
-20 8 -21 -18 0 -40 -2 -48 -3 -8 -2 -38 -7 -66 -10 l-51 -7 -5 38 c-3 21 -3
62 1 92 5 42 10 55 25 57 16 2 144 12 244 18 99 7 227 19 231 22 2 2 32 4 67
4 45 0 63 -4 67 -15z m254 -2 c9 -4 13 -32 13 -97 l0 -92 -72 8 c-40 5 -92 8
-115 6 -52 -4 -53 -1 -53 103 l0 80 107 -2 c59 -1 113 -4 120 -6z m558 -114
c88 -21 325 -114 325 -127 0 -8 -9 -31 -20 -51 -22 -40 -59 -131 -97 -236 -14
-38 -36 -95 -50 -125 -14 -30 -31 -68 -38 -85 -109 -265 -146 -332 -130 -234
7 38 77 210 96 234 4 6 22 48 38 93 17 45 39 101 51 124 20 41 20 42 1 73
l-19 32 34 89 c18 49 34 90 34 91 1 10 -76 42 -112 47 -26 4 -50 11 -53 17 -4
5 -19 9 -35 9 -25 0 -33 -7 -51 -42 -12 -24 -23 -45 -24 -46 -5 -6 -75 21 -75
29 0 4 14 6 31 5 18 0 34 5 36 12 3 8 -6 12 -27 12 -25 0 -31 4 -28 18 3 12
12 16 36 14 39 -3 45 24 8 34 -17 4 -23 11 -19 21 4 10 13 12 27 8 11 -3 39
-11 61 -16z m85 -89 c30 -11 62 -20 70 -20 36 -1 39 -14 20 -73 -22 -65 -45
-109 -36 -67 3 14 12 47 21 73 11 37 11 49 2 51 -7 2 -41 12 -77 22 -36 9 -69
21 -74 26 -17 14 17 9 74 -12z m-577 -20 c31 -7 57 -16 57 -21 0 -29 -330 -50
-460 -30 -88 14 -102 23 -62 40 73 31 343 37 465 11z m-744 -19 c12 -16 21
-32 21 -36 0 -4 22 -44 49 -89 26 -44 63 -109 82 -143 18 -35 40 -63 49 -64
30 -2 -47 -19 -124 -28 -108 -12 -131 -30 -130 -102 1 -30 2 -119 2 -199 1
-80 2 -175 2 -212 2 -116 -7 -106 -148 177 -16 33 -38 76 -47 95 -10 19 -55
100 -100 180 -109 191 -195 363 -187 372 7 6 189 36 367 59 44 6 82 12 84 15
2 2 17 4 32 4 19 0 34 -9 48 -29z m1221 -25 c-14 -39 -13 -42 20 -56 17 -7 29
-15 26 -17 -2 -2 -18 3 -35 12 -33 16 -39 41 -20 77 15 28 22 16 9 -16z m518
-40 c3 -4 14 -6 24 -6 23 0 24 1 -16 -78 -18 -37 -46 -96 -61 -132 -15 -36
-40 -92 -56 -125 -44 -96 -69 -154 -69 -159 0 -2 -24 -55 -54 -118 -29 -62
-56 -121 -59 -130 -5 -13 -18 -18 -49 -19 -24 0 -65 -4 -93 -9 -27 -4 -54 -5
-58 0 -11 9 11 75 52 157 17 34 31 65 31 68 0 8 77 194 94 225 7 14 24 57 37
95 13 39 31 85 41 103 10 18 18 36 18 41 0 5 16 43 35 85 l34 76 72 -35 c39
-19 74 -36 77 -39z m-1659 -12 c28 -42 51 -77 51 -79 0 -2 15 -26 33 -52 l32
-48 6 105 5 105 2 -132 c1 -73 0 -133 -2 -133 -2 0 -15 19 -29 43 -131 223
-156 267 -152 267 2 0 26 -34 54 -76z m1058 53 c28 -8 40 -16 35 -24 -10 -16
-82 5 -82 24 0 7 1 13 3 13 1 0 21 -6 44 -13z m-617 -40 c143 0 196 4 235 17
28 9 53 16 58 16 4 0 7 -24 7 -54 l0 -54 -67 -13 c-75 -15 -372 -17 -458 -2
-41 7 -51 12 -53 30 -3 21 0 22 29 16 24 -4 31 -3 27 7 -2 7 -12 14 -22 16
-34 5 -46 13 -46 32 0 18 2 18 53 4 38 -11 101 -15 237 -15z m698 -46 c82 -33
182 -100 182 -124 0 -7 -5 -18 -12 -25 -40 -40 -253 32 -340 116 -89 85 -5
102 170 33z m-203 -38 c52 -60 206 -135 303 -146 24 -3 46 -7 48 -10 5 -5 -35
-116 -48 -133 -6 -8 -23 -8 -66 1 -80 18 -126 40 -147 71 -17 26 -18 26 -116
22 -79 -3 -99 -1 -99 10 0 10 8 12 29 7 17 -3 32 -2 36 4 3 6 0 11 -8 11 -23
0 -42 29 -29 42 9 9 16 7 30 -5 20 -19 52 -23 52 -7 0 6 -6 10 -13 10 -21 0
-61 47 -47 55 6 4 20 -1 30 -10 10 -9 24 -14 29 -10 15 9 14 25 -2 25 -17 0
-49 34 -41 43 4 3 17 -1 30 -9 37 -25 51 -11 16 15 -18 12 -32 29 -32 37 0 22
11 17 45 -23z m310 19 c-3 -3 -11 0 -18 7 -9 10 -8 11 6 5 10 -3 15 -9 12 -12z
m-891 -61 c91 -8 293 0 359 15 l27 6 0 -94 0 -93 -48 -20 c-48 -20 -59 -20
-54 -3 3 13 -39 88 -51 88 -5 0 -20 9 -34 20 -54 43 -197 18 -226 -40 -11 -21
-18 -23 -86 -22 -49 1 -77 5 -82 14 -15 23 -10 27 22 16 22 -7 34 -7 42 1 17
17 -4 28 -55 30 -10 1 -18 8 -18 16 0 10 11 15 35 15 24 0 35 5 35 15 0 10
-10 15 -30 15 -23 0 -30 4 -30 20 0 17 5 19 48 14 26 -3 92 -9 146 -13z m194
-108 c42 -28 74 -86 56 -103 -13 -13 -187 -71 -193 -64 -3 3 -6 17 -7 32 -2
43 -21 79 -44 85 -43 11 3 54 75 70 46 10 73 6 113 -20z m-1142 -47 c25 -19
14 -39 -51 -88 -80 -60 -182 -105 -258 -112 -82 -8 -85 1 -24 60 51 50 131 96
223 129 82 29 85 29 110 11z m942 -22 c44 -12 15 -29 -69 -40 -104 -14 -314
-17 -354 -6 -29 9 -28 9 25 21 30 6 78 15 105 20 59 10 260 13 293 5z m687
-109 c20 -64 35 -120 33 -126 -2 -5 -20 45 -42 112 l-38 121 -30 -6 c-17 -3
-55 -6 -84 -6 -56 0 -69 -13 -40 -42 7 -8 16 -27 19 -43 3 -17 18 -70 32 -120
15 -49 38 -134 50 -188 19 -84 20 -99 8 -104 -22 -9 -29 5 -53 102 -12 50 -25
106 -30 125 -5 19 -21 82 -35 140 -14 58 -28 113 -31 122 -6 19 18 23 138 26
l67 2 36 -115z m-1535 -9 c0 -32 -19 -24 -36 14 -10 22 -21 40 -25 40 -3 0
-18 -9 -32 -20 -14 -11 -28 -20 -31 -20 -3 0 -24 -13 -48 -28 -131 -86 -138
-89 -200 -96 -35 -4 -66 -13 -70 -19 -5 -8 -9 -5 -14 7 -9 23 6 32 61 35 84 4
294 119 325 176 l13 25 29 -50 c15 -27 28 -56 28 -64z m1270 97 c0 -7 -210
-74 -250 -80 -21 -4 49 28 85 38 17 4 55 17 85 28 59 22 80 25 80 14z m-390
-58 c0 -41 -16 -46 -32 -10 -6 14 -18 26 -27 26 -13 1 22 13 52 18 4 0 7 -15
7 -34z m760 -6 c41 -13 76 -24 78 -25 7 -4 -23 -54 -33 -54 -6 0 -32 13 -56
29 -48 32 -104 88 -79 79 8 -3 49 -16 90 -29z m-1192 6 c-2 -1 -15 -5 -30 -9
-20 -4 -28 -3 -28 7 0 9 9 12 30 9 17 -2 30 -5 28 -7z m1014 -14 c9 -8 33 -99
27 -105 -2 -2 -22 -6 -43 -8 l-39 -3 -14 50 c-17 65 -16 73 5 78 18 5 53 -1
64 -12z m-499 -29 c-36 -14 -43 -20 -43 -44 0 -15 5 -28 11 -28 5 0 51 11 101
25 98 28 132 28 46 0 -29 -10 -64 -23 -78 -30 -14 -7 -40 -16 -57 -20 l-33 -7
0 47 c0 42 3 47 33 60 17 8 39 14 47 14 8 0 -4 -8 -27 -17z m-363 -23 c9 -5
-27 -8 -94 -6 -62 1 -111 6 -113 12 -4 12 185 7 207 -6z m629 -31 c20 -87 52
-220 65 -273 12 -49 13 -50 57 -56 l44 -7 -49 2 c-56 1 -58 4 -79 91 -15 61
-51 204 -67 263 -6 23 -5 32 4 32 7 0 18 -24 25 -52z m-341 15 c-1 -10 1 -54
5 -98 4 -44 9 -106 12 -137 l5 -57 -43 -12 c-44 -12 -401 -21 -449 -12 -41 8
-34 18 19 29 64 12 73 38 9 29 -42 -7 -46 -6 -46 14 0 14 6 21 19 21 31 0 51
11 51 27 0 12 -8 14 -35 9 -30 -6 -35 -4 -35 12 0 14 11 20 51 28 63 11 61 30
-3 26 -43 -3 -48 -2 -48 16 0 17 7 21 37 24 52 4 56 28 4 28 -34 0 -41 3 -41
20 0 19 7 20 148 20 81 1 176 7 212 14 97 20 130 20 128 -1z m-854 -20 c13
-25 12 -28 -11 -47 -60 -46 -70 -123 -27 -197 38 -64 119 -99 168 -73 25 12
27 11 52 -32 15 -25 24 -47 21 -51 -6 -6 -193 34 -347 74 -52 14 -114 30 -138
35 -40 9 -42 11 -28 27 26 29 19 41 -14 24 -17 -8 -28 -19 -25 -24 8 -12 1
-11 -27 2 -28 12 -64 89 -47 100 7 4 30 10 52 13 58 10 169 46 188 62 8 8 18
14 22 14 10 0 90 56 112 79 27 26 32 26 49 -6z m1152 -10 c3 -16 15 -59 26
-98 62 -228 63 -234 12 -235 -16 0 -25 11 -37 43 -17 48 -49 180 -51 211 -2
27 -33 24 -134 -11 -40 -14 -75 -24 -77 -21 -3 2 -6 14 -7 27 -3 19 6 26 62
47 36 14 79 31 95 38 71 33 103 32 111 -1z m337 -92 c9 -31 23 -89 33 -129 19
-83 15 -92 -43 -92 -30 0 -33 3 -43 43 -6 23 -15 58 -20 78 -6 20 -15 60 -20
90 -12 60 -5 69 47 67 29 -1 32 -5 46 -57z m-1438 -1 c14 -27 23 -50 21 -50
-9 0 -64 89 -58 94 9 10 11 8 37 -44z m1565 21 c0 -5 -6 -24 -14 -42 -15 -35
-15 -35 -31 17 -3 9 -3 20 1 25 7 12 44 12 44 0z m-512 -111 c35 -143 36 -150
21 -150 -24 0 -152 -10 -185 -14 -20 -3 -31 0 -30 7 0 7 -5 49 -13 94 -7 45
-11 88 -8 95 2 7 31 21 63 32 33 10 68 22 79 27 40 16 48 6 73 -91z m-1141 18
c-3 -7 -5 -2 -5 12 0 14 2 19 5 13 2 -7 2 -19 0 -25z m133 -13 c14 -19 14 -19
-2 -6 -10 7 -18 18 -18 24 0 6 1 8 3 6 1 -2 9 -13 17 -24z m-73 -84 c10 -6 13
-11 6 -11 -15 0 -63 62 -63 81 1 8 10 -3 20 -23 11 -20 28 -42 37 -47z m103
39 c0 -5 -2 -10 -4 -10 -3 0 -8 5 -11 10 -3 6 -1 10 4 10 6 0 11 -4 11 -10z
m138 -118 c12 -23 22 -45 22 -47 0 -3 -13 -5 -30 -5 -30 0 -42 21 -20 35 17
10 11 23 -11 27 -12 2 -27 11 -33 20 -8 14 -6 21 9 32 22 16 25 13 63 -62z
m-155 51 c-7 -2 -21 -2 -30 0 -10 3 -4 5 12 5 17 0 24 -2 18 -5z m767 -8 c0
-11 -12 -15 -52 -15 -60 0 -59 7 3 19 24 5 45 9 47 10 1 1 2 -6 2 -14z m14
-40 c3 -8 1 -15 -4 -15 -6 0 -10 7 -10 15 0 8 2 15 4 15 2 0 6 -7 10 -15z
m416 -170 c80 -3 156 -7 170 -9 14 -3 41 -5 60 -6 29 -1 32 -3 15 -10 -47 -21
-390 -7 -482 19 -2 1 -18 2 -35 2 -31 2 -31 2 7 8 22 4 58 5 80 4 22 -1 105
-5 185 -8z m-275 -26 c39 -6 150 -16 247 -23 98 -6 179 -14 181 -17 8 -7 21
-516 21 -807 l1 -282 -35 5 c-19 3 -60 10 -90 15 -30 6 -109 16 -175 22 -66 7
-123 16 -127 21 -3 6 -5 46 -4 89 1 44 -2 82 -6 84 -4 3 -9 -1 -10 -8 0 -7 -2
-17 -3 -23 -2 -5 -3 -24 -4 -42 -1 -27 -5 -32 -28 -35 -16 -2 -47 6 -73 19
-37 19 -50 34 -73 82 -15 32 -25 65 -23 72 2 8 7 26 10 41 4 19 19 35 49 50
49 26 119 49 126 42 5 -5 6 -11 9 -71 3 -52 22 -38 20 15 -1 26 -1 89 0 140
l2 92 48 0 c51 0 249 -26 275 -35 17 -7 33 10 18 19 -5 3 -40 8 -78 11 -37 2
-68 5 -68 6 0 1 -11 2 -25 3 -39 3 -133 17 -152 22 -10 3 -18 15 -18 26 0 16
3 18 13 10 12 -10 285 -57 292 -50 2 2 5 77 7 168 l3 165 -161 3 -161 2 -7
-46 c-3 -26 -6 -75 -6 -110 0 -36 -4 -64 -10 -64 -6 0 -11 37 -11 88 -1 48 -3
98 -4 112 -5 52 -4 52 159 46 83 -2 166 -8 184 -12 l33 -7 -2 -175 c-1 -124 2
-177 10 -180 8 -3 11 48 11 181 l0 184 -26 12 c-15 6 -103 14 -205 18 l-179 6
0 -132 c0 -74 -4 -131 -9 -131 -5 0 -21 4 -35 10 l-26 10 0 185 0 185 23 0
c12 0 54 -5 92 -11z m624 -241 c0 -244 14 -770 22 -798 3 -10 -20 -27 -70 -52
-41 -21 -80 -38 -88 -38 -10 0 -13 23 -14 98 -2 312 -7 593 -14 782 l-8 215
69 17 c116 27 104 52 103 -224z m-1075 -149 c-17 -5 -37 -15 -43 -23 -12 -14
-41 -12 -41 4 0 13 44 29 80 28 l35 0 -31 -9z m430 -28 c3 -5 -1 -12 -10 -15
-25 -10 -34 -7 -28 9 7 17 30 20 38 6z m-319 -60 c48 -7 36 -8 -64 -4 -119 6
-124 5 -116 -13 4 -10 7 -29 6 -41 0 -13 4 -23 9 -23 6 0 10 -9 10 -20 0 -24
-13 -26 -34 -5 -14 14 -15 27 -8 121 2 20 4 20 70 8 37 -7 94 -17 127 -23z
m335 -26 c0 -67 -15 -73 -23 -8 -4 41 2 62 21 63 1 0 2 -25 2 -55z m-222 -107
c78 1 142 -1 142 -6 0 -10 -17 -11 -180 -12 -102 -1 -145 2 -175 14 l-40 16
55 -7 c30 -5 119 -7 198 -5z m-190 -28 c83 -15 236 -15 322 1 60 10 73 10 80
-1 12 -19 5 -27 -31 -35 -88 -20 -163 -73 -171 -123 -10 -56 12 -133 50 -175
30 -33 92 -60 140 -59 20 0 23 -4 20 -36 -3 -34 -6 -37 -62 -59 -90 -34 -244
-34 -358 1 -45 14 -88 29 -95 34 -17 11 -23 447 -7 474 3 4 15 3 28 -2 13 -5
51 -14 84 -20z m-53 -494 c75 -26 145 -38 217 -37 50 0 68 -3 58 -9 -26 -17
-176 -9 -289 16 l-34 7 8 -68 c5 -54 4 -66 -7 -63 -9 3 -14 29 -16 86 -3 91
-3 91 63 68z m464 -136 c-5 -8 -8 20 -7 65 l1 80 7 -65 c4 -36 3 -72 -1 -80z
m-386 -45 c33 -7 61 -16 64 -18 8 -9 -81 6 -117 19 -47 17 -19 17 53 -1z m315
-6 c-23 -13 -175 -26 -213 -18 -21 5 -9 7 40 8 39 1 88 6 110 10 22 5 49 9 60
10 18 0 18 0 3 -10z"/>
<path d="M1750 3599 c-47 -4 -148 -12 -225 -18 -77 -5 -141 -10 -142 -11 -5 0
-3 -45 3 -67 10 -36 26 -27 19 11 -6 31 -5 34 27 40 24 5 224 24 288 28 3 0
31 0 62 -1 l57 -1 3 -37 c5 -60 26 -52 22 9 -3 61 4 58 -114 47z"/>
<path d="M2010 3610 c0 -6 33 -10 80 -10 47 0 80 4 80 10 0 6 -33 10 -80 10
-47 0 -80 -4 -80 -10z"/>
<path d="M2010 3530 c0 -6 33 -10 79 -10 44 0 83 5 86 10 4 6 -25 10 -79 10
-51 0 -86 -4 -86 -10z"/>
<path d="M1454 3340 c-6 -6 -46 -13 -90 -16 -43 -3 -90 -8 -104 -11 -14 -4
-36 -8 -50 -9 -72 -8 -110 -16 -110 -24 0 -5 13 -24 29 -43 17 -18 88 -150
160 -292 129 -255 145 -284 156 -273 5 5 -15 46 -105 218 -10 19 -48 94 -83
166 -35 72 -76 149 -91 170 -14 21 -26 42 -26 45 0 4 28 9 63 12 34 3 71 7 82
10 11 3 54 8 95 12 41 4 79 8 84 9 7 1 30 -32 72 -109 9 -16 20 -32 23 -35 3
-3 17 -22 31 -42 24 -36 40 -48 40 -30 0 5 -17 33 -38 63 -40 57 -87 141 -96
172 -6 19 -27 22 -42 7z"/>
<path d="M3086 3298 c-13 -29 -35 -80 -49 -113 -14 -32 -23 -63 -21 -67 3 -4
17 -8 32 -8 15 0 40 -7 56 -15 16 -9 30 -14 31 -13 2 2 17 37 35 78 18 41 39
85 48 97 19 29 11 47 -29 67 -37 18 -54 12 -25 -10 11 -8 15 -14 9 -14 -7 0
-15 5 -18 10 -12 19 -25 10 -49 -37 -14 -27 -25 -44 -26 -40 0 4 11 30 25 57
28 56 29 60 14 60 -5 0 -20 -24 -33 -52z"/>
<path d="M2990 3027 c0 -14 87 -50 101 -41 19 11 7 23 -38 38 -56 19 -63 20
-63 3z"/>
<path d="M2955 2959 c-4 -6 -5 -12 -4 -14 11 -9 84 -35 101 -35 35 0 13 24
-38 42 -58 21 -51 20 -59 7z"/>
<path d="M2925 2890 c-3 -6 2 -13 12 -16 10 -3 33 -12 51 -20 32 -14 52 -12
52 5 0 9 -77 41 -97 41 -7 0 -15 -5 -18 -10z"/>
<path d="M2900 2829 c0 -10 49 -34 84 -41 37 -6 25 17 -17 35 -48 20 -67 21
-67 6z"/>
<path d="M2880 2767 c0 -13 70 -47 98 -47 24 0 11 21 -20 34 -63 26 -78 28
-78 13z"/>
<path d="M2847 2714 c-4 -4 -7 -10 -7 -14 0 -11 100 -42 117 -36 21 9 7 22
-37 34 -19 5 -42 13 -51 16 -8 4 -18 3 -22 0z"/>
<path d="M2817 2653 c-13 -13 -7 -21 24 -32 68 -24 98 -2 34 25 -38 16 -49 17
-58 7z"/>
<path d="M2594 3312 c3 -5 31 -15 62 -22 32 -8 84 -32 116 -53 33 -22 62 -36
66 -32 12 12 -70 73 -126 95 -53 20 -128 28 -118 12z"/>
<path d="M885 3026 c-73 -21 -175 -86 -175 -112 0 -20 4 -18 62 26 29 22 64
43 78 47 14 3 30 9 35 13 6 5 27 11 47 15 21 4 35 11 32 16 -7 11 -28 10 -79
-5z"/>
<path d="M1614 2806 c3 -11 6 -42 6 -68 0 -36 4 -48 15 -48 8 0 15 -9 15 -20
0 -13 -7 -20 -20 -20 -11 0 -20 -4 -20 -10 0 -17 236 -15 286 2 l31 11 -4 76
c-3 42 -6 81 -8 88 -3 9 -46 12 -155 11 -150 0 -152 0 -146 -22z m74 -13 c-10
-2 -26 -2 -35 0 -10 3 -2 5 17 5 19 0 27 -2 18 -5z"/>
<path d="M835 2710 c3 -5 10 -10 16 -10 5 0 9 5 9 10 0 6 -7 10 -16 10 -8 0
-12 -4 -9 -10z"/>
<path d="M768 2686 c-39 -10 -53 -36 -19 -36 19 0 70 35 61 42 -3 2 -22 0 -42
-6z"/>
<path d="M870 2640 c0 -5 4 -10 9 -10 6 0 13 5 16 10 3 6 -1 10 -9 10 -9 0
-16 -4 -16 -10z"/>
<path d="M2200 1712 c0 -5 57 -14 127 -21 149 -15 169 -23 177 -63 9 -47 7
-98 -4 -98 -5 0 -10 10 -10 23 0 12 -5 38 -10 58 l-10 35 -112 17 c-62 10
-123 20 -135 23 -22 6 -23 4 -23 -52 0 -72 7 -84 51 -90 19 -3 70 -14 114 -25
44 -10 99 -18 123 -17 l42 1 0 51 c0 91 -10 123 -39 135 -14 5 -44 10 -66 10
-22 0 -69 4 -105 10 -78 13 -120 14 -120 3z"/>
<path d="M2164 1506 c-3 -8 -1 -23 5 -33 9 -15 10 -13 11 15 0 34 -7 42 -16
18z"/>
<path d="M2654 2265 c-11 -8 -14 -30 -11 -95 l3 -85 44 2 c24 1 46 6 51 10 4
4 9 46 11 93 l3 85 -44 0 c-24 0 -50 -4 -57 -10z"/>
<path d="M2693 2033 c-21 -3 -33 -10 -33 -20 0 -12 8 -13 43 -8 23 4 44 9 46
10 5 5 -9 25 -17 23 -4 0 -22 -3 -39 -5z"/>
<path d="M2683 1943 c-7 -2 -13 -9 -13 -14 0 -14 44 -11 66 6 18 14 18 14 -11
14 -16 0 -36 -3 -42 -6z"/>
<path d="M2675 1859 c-4 -6 -5 -13 -2 -15 8 -8 77 7 77 17 0 13 -67 11 -75 -2z"/>
<path d="M2703 1784 c-32 -14 -48 -42 -17 -30 9 3 27 9 40 12 24 6 31 19 17
27 -5 2 -23 -2 -40 -9z"/>
<path d="M2698 1702 c-16 -2 -28 -9 -28 -16 0 -8 12 -11 35 -8 19 2 35 8 35
13 0 12 -12 15 -42 11z"/>
<path d="M2688 1623 c-10 -2 -18 -9 -18 -15 0 -5 7 -7 16 -4 9 3 27 6 40 6 13
0 24 5 24 10 0 10 -30 12 -62 3z"/>
<path d="M2665 1539 c-4 -6 -5 -13 -2 -15 8 -8 77 7 77 17 0 13 -67 11 -75 -2z"/>
<path d="M2703 1478 c-18 -5 -33 -13 -33 -18 0 -10 60 -2 73 10 15 13 -7 17
-40 8z"/>
<path d="M2677 1389 c-31 -18 -9 -26 37 -15 25 7 48 15 52 19 11 11 -69 8 -89
-4z"/>
<path d="M2703 1308 c-23 -11 -31 -28 -14 -28 19 0 71 23 71 31 0 12 -29 10
-57 -3z"/>
<path d="M1652 1660 c5 -16 56 -35 65 -26 10 10 -9 24 -41 32 -22 5 -28 4 -24
-6z"/>
<path d="M1655 1590 c-7 -11 27 -30 50 -30 9 0 15 5 13 12 -5 15 -56 29 -63
18z"/>
<path d="M1662 1518 c3 -7 17 -15 33 -16 25 -3 27 -2 16 12 -16 19 -55 22 -49
4z"/>
<path d="M1655 1450 c-3 -5 3 -14 14 -19 26 -14 44 -14 39 1 -5 15 -46 29 -53
18z"/>
<path d="M1652 1378 c5 -15 68 -24 68 -10 0 12 -24 22 -52 22 -11 0 -18 -5
-16 -12z"/>
<path d="M1650 1301 c0 -11 25 -21 51 -21 23 0 25 15 3 24 -23 9 -54 7 -54 -3z"/>
<path d="M654 2569 c-3 -5 7 -14 21 -19 32 -12 55 -13 55 -2 0 13 -69 32 -76
21z"/>
<path d="M662 2498 c3 -7 22 -14 44 -16 37 -2 38 -1 20 13 -24 18 -69 20 -64
3z"/>
<path d="M660 2431 c0 -11 59 -26 67 -17 9 9 2 12 -34 19 -18 4 -33 2 -33 -2z"/>
<path d="M670 2350 c0 -5 9 -10 20 -10 11 0 23 0 27 -1 4 0 9 4 11 10 2 6 -10
11 -27 11 -17 0 -31 -4 -31 -10z"/>
<path d="M690 2270 c0 -5 14 -10 31 -10 17 0 28 4 24 10 -3 6 -17 10 -31 10
-13 0 -24 -4 -24 -10z"/>
<path d="M697 2183 c-14 -13 -6 -24 15 -21 27 4 36 28 11 28 -11 0 -23 -3 -26
-7z"/>
<path d="M652 2150 c0 -14 2 -19 5 -12 2 6 2 18 0 25 -3 6 -5 1 -5 -13z"/>
<path d="M652 2070 c-1 -39 2 -49 8 -34 4 11 5 36 0 55 -7 31 -8 29 -8 -21z"/>
<path d="M685 2090 c3 -5 19 -10 36 -10 16 0 29 5 29 10 0 6 -16 10 -36 10
-21 0 -33 -4 -29 -10z"/>
<path d="M685 1990 c3 -5 19 -10 36 -10 16 0 29 5 29 10 0 6 -16 10 -36 10
-21 0 -33 -4 -29 -10z"/>
<path d="M680 1840 c0 -5 11 -10 25 -10 14 0 25 5 25 10 0 6 -11 10 -25 10
-14 0 -25 -4 -25 -10z"/>
<path d="M684 1761 c10 -16 46 -20 46 -5 0 8 -10 14 -26 14 -14 0 -23 -4 -20
-9z"/>
<path d="M687 1623 c-14 -14 -6 -19 23 -15 16 2 27 8 24 13 -6 11 -38 12 -47
2z"/>
<path d="M700 1525 c0 -11 7 -15 23 -13 12 2 22 8 22 13 0 6 -10 11 -22 13
-16 2 -23 -2 -23 -13z"/>
<path d="M690 1472 c0 -4 9 -13 20 -20 16 -10 20 -10 20 2 0 8 -7 17 -16 20
-20 8 -24 8 -24 -2z"/>
<path d="M1713 943 c15 -2 39 -2 55 0 15 2 2 4 -28 4 -30 0 -43 -2 -27 -4z"/>
<path d="M980 795 l0 -115 40 0 40 0 0 55 0 55 35 0 c19 0 35 5 35 10 0 6 -16
10 -35 10 -34 0 -35 1 -35 40 l0 40 40 0 c22 0 40 5 40 10 0 6 -33 10 -80 10
l-80 0 0 -115z"/>
<path d="M1610 880 c0 -27 -3 -30 -30 -30 -44 0 -70 -31 -70 -83 0 -23 7 -53
16 -65 13 -19 24 -22 85 -22 l69 0 0 115 0 115 -35 0 c-32 0 -35 -2 -35 -30z
m0 -121 c0 -48 -12 -65 -24 -33 -8 20 -8 58 0 78 11 29 24 5 24 -45z"/>
<path d="M1724 895 c-9 -22 9 -37 37 -33 16 2 24 10 24 23 0 26 -52 35 -61 10z"/>
<path d="M2470 795 l0 -115 35 0 35 0 0 53 c0 31 6 61 15 73 13 17 14 12 15
-53 l0 -73 35 0 35 0 0 80 c0 77 -1 80 -25 86 -14 3 -36 3 -50 0 -23 -6 -25
-4 -25 29 0 33 -2 35 -35 35 l-35 0 0 -115z"/>
<path d="M2142 888 c-6 -6 -12 -18 -12 -25 0 -8 -12 -13 -30 -13 -54 0 -91
-60 -55 -90 14 -12 14 -15 0 -30 -19 -21 -19 -39 0 -46 14 -6 13 -8 -2 -20
-17 -13 -17 -15 1 -29 24 -18 111 -20 146 -2 31 16 39 56 14 74 -10 7 -39 13
-66 13 -26 0 -48 5 -48 10 0 6 15 10 33 10 68 0 98 51 57 95 l-20 22 22 -1
c17 -1 23 5 23 19 0 24 -43 33 -63 13z m-14 -99 c-1 -13 -7 -23 -13 -22 -13 3
-18 30 -11 50 10 24 29 1 24 -28z m27 -134 c0 -12 -40 -19 -61 -11 -9 3 -12
11 -9 16 8 14 70 9 70 -5z"/>
<path d="M2373 888 c-13 -6 -23 -17 -23 -24 0 -7 -6 -15 -12 -18 -10 -5 -10
-7 0 -12 8 -4 12 -28 12 -69 0 -72 12 -88 61 -83 33 3 55 28 25 28 -13 0 -16
12 -16 60 0 47 3 60 15 60 8 0 15 5 15 10 0 6 -7 10 -15 10 -9 0 -15 9 -15 25
0 27 -12 30 -47 13z"/>
<path d="M1192 843 c-18 -7 -42 -57 -42 -88 0 -78 138 -106 163 -32 5 12 1 17
-12 17 -11 0 -21 -9 -24 -21 -8 -29 -39 -21 -48 14 -7 27 -7 27 41 27 l49 0
-10 33 c-5 17 -17 38 -26 45 -17 12 -66 15 -91 5z m58 -44 c0 -10 -6 -19 -14
-19 -9 0 -12 8 -8 25 5 28 22 24 22 -6z"/>
<path d="M1372 843 c-18 -7 -42 -57 -42 -88 0 -78 138 -106 163 -32 5 12 1 17
-12 17 -11 0 -21 -9 -24 -21 -8 -29 -39 -21 -48 14 -7 27 -7 27 41 27 l49 0
-10 33 c-5 17 -17 38 -26 45 -17 12 -66 15 -91 5z m58 -44 c0 -10 -6 -19 -14
-19 -9 0 -12 8 -8 25 5 28 22 24 22 -6z"/>
<path d="M1720 765 l0 -85 35 0 35 0 0 85 0 85 -35 0 -35 0 0 -85z"/>
<path d="M1830 764 l0 -84 35 0 35 0 0 59 c0 40 5 63 15 71 13 11 15 3 15 -59
l0 -71 35 0 35 0 0 74 c0 47 -5 77 -12 84 -7 5 -46 10 -85 10 l-73 1 0 -85z"/>
<path d="M2712 843 c-18 -7 -42 -57 -42 -88 0 -78 138 -106 163 -32 5 12 1 17
-12 17 -11 0 -21 -9 -24 -21 -8 -29 -39 -21 -48 14 -7 27 -7 27 41 27 l49 0
-10 33 c-5 17 -17 38 -26 45 -17 12 -66 15 -91 5z m58 -44 c0 -10 -6 -19 -14
-19 -9 0 -12 8 -8 25 5 28 22 24 22 -6z"/>
<path d="M1028 501 c-31 -27 -33 -34 -33 -91 0 -55 3 -64 28 -86 55 -47 167
-20 167 42 0 37 -36 32 -44 -6 -8 -41 -34 -50 -59 -19 -15 19 -18 35 -15 82 5
67 27 99 56 81 9 -6 18 -21 20 -33 4 -27 26 -22 30 6 4 28 -33 53 -80 53 -28
0 -47 -8 -70 -29z"/>
<path d="M2444 515 c-9 -22 9 -37 37 -33 16 2 24 10 24 23 0 26 -52 35 -61 10z"/>
<path d="M2573 508 c-13 -6 -23 -17 -23 -24 0 -7 -6 -15 -12 -18 -10 -5 -10
-7 0 -12 8 -4 12 -28 12 -69 0 -72 12 -88 61 -83 33 3 55 28 25 28 -13 0 -16
12 -16 60 0 51 3 60 18 60 13 0 25 -20 45 -73 15 -41 27 -80 27 -89 0 -22 -11
-29 -27 -16 -11 9 -16 9 -23 -2 -17 -27 47 -43 68 -17 8 9 55 118 90 206 3 8
-1 12 -13 10 -10 -2 -25 -23 -35 -48 l-17 -44 -13 47 -13 46 -53 0 c-51 0 -54
1 -54 25 0 27 -12 30 -47 13z"/>
<path d="M1235 445 c-34 -33 -34 -87 0 -120 34 -35 96 -35 130 0 56 56 16 145
-65 145 -30 0 -47 -6 -65 -25z m79 -11 c9 -24 7 -87 -4 -104 -9 -13 -11 -13
-20 0 -18 27 -10 120 10 120 4 0 11 -7 14 -16z"/>
<path d="M1420 384 l0 -84 35 0 35 0 0 64 c0 36 5 68 10 71 6 4 10 -20 10 -64
l0 -71 35 0 34 0 3 67 c2 42 8 68 16 71 9 3 12 -15 12 -67 l0 -71 35 0 35 0 0
73 c0 43 -5 78 -12 85 -15 15 -53 16 -78 2 -11 -6 -21 -6 -24 -1 -3 5 -37 9
-76 9 l-70 1 0 -85z"/>
<path d="M1720 384 l0 -84 35 0 35 0 0 64 c0 36 5 68 10 71 6 4 10 -20 10 -64
l0 -71 35 0 34 0 3 67 c2 42 8 68 16 71 9 3 12 -15 12 -67 l0 -71 35 0 35 0 0
73 c0 43 -5 78 -12 85 -15 15 -53 16 -78 2 -11 -6 -21 -6 -24 -1 -3 5 -37 9
-76 9 l-70 1 0 -85z"/>
<path d="M2020 396 c0 -47 5 -77 13 -84 6 -5 45 -10 85 -10 l72 -1 0 85 0 84
-35 0 -35 0 0 -54 c0 -58 -7 -86 -21 -86 -5 0 -9 32 -9 70 l0 70 -35 0 -35 0
0 -74z"/>
<path d="M2230 384 l0 -84 35 0 35 0 0 59 c0 40 5 63 15 71 13 11 15 3 15 -59
l0 -71 35 0 35 0 0 74 c0 47 -5 77 -12 84 -7 5 -46 10 -85 10 l-73 1 0 -85z"/>
<path d="M2440 385 l0 -85 35 0 35 0 0 85 0 85 -35 0 -35 0 0 -85z"/>
</g>
</svg>
