<svg xmlns="http://www.w3.org/2000/svg" viewBox="0 0 63.6 62.02"><title>Donations_Active</title><g id="Layer_2" data-name="Layer 2"><g id="Donations_Active"><path d="M45.49,62a8.92,8.92,0,0,1-2.34-.32L30.54,58.34a3.52,3.52,0,0,1-2.92-3.75V51.74a1.17,1.17,0,0,1,1.22-1.3,1.21,1.21,0,0,1,1.3,1.24c0,1,0,1.91,0,2.86a1.18,1.18,0,0,0,1,1.36c2.2.57,4.38,1.15,6.56,1.73l6.55,1.73a4.71,4.71,0,0,0,1.25.16,7,7,0,0,0,1.72-.24l6.25-1.63,6.11-1.6c1.36-.36,1.5-.55,1.5-2v-12c0-.86,0-.86-.19-.86a5.06,5.06,0,0,0-.69.11L47.53,44.06a9.38,9.38,0,0,1-2.07.22A12.68,12.68,0,0,1,42.93,44a1.16,1.16,0,0,1-1.07-1.3,1.1,1.1,0,0,1,1.08-1.14.75.75,0,0,1,.21,0,13.63,13.63,0,0,0,1.94.14,28.34,28.34,0,0,0,7-1.19c1.41-.36,2.87-.74,4.34-1A24.81,24.81,0,0,0,59,39l1.07-.26a4.07,4.07,0,0,1,.9-.1,2.56,2.56,0,0,1,2.63,2.87c-.08,2.21-.08,4.44-.08,6.59v6.49a3.52,3.52,0,0,1-2.87,3.71L54.21,60l-6.46,1.71A9.34,9.34,0,0,1,45.49,62Z"/><path d="M55.83,38.75l-2.31-.39c-1.71-.27-3.48-.56-5.2-.92a11.7,11.7,0,0,0-2.39-.25,10.55,10.55,0,0,0-2.89.4c-.73.21-1.47.39-2.2.57l-1.07.27a2.28,2.28,0,0,1-.55.08,1.29,1.29,0,0,1-1.09-1.89,1.45,1.45,0,0,1,1-.61c.68-.15,1.35-.33,2-.52a17.9,17.9,0,0,1,4.67-.84,9.51,9.51,0,0,1,1.05.06c1.47.18,3,.45,4.41.71l1.89.34,1.47.25,1.48.26a1.2,1.2,0,0,1,1.13,1.47,1.14,1.14,0,0,1-1.3,1Z"/><path d="M3.17,52.41H1.22a.35.35,0,0,1-.34-.35v-4.8q0-7.53,0-15.06a13.12,13.12,0,0,1,3.2-9.08A13.22,13.22,0,0,1,0,13.26,13.51,13.51,0,0,1,12.75,0h.64A13.39,13.39,0,0,1,26.91,12.16a13,13,0,0,1-4.08,11c3.46,3.49,6.7,7.15,9.82,10.7l2.43,2.73c.9,1,1.78,2,2.67,3.06l1.81,2.08a6,6,0,0,1-.26,8.49,5.9,5.9,0,0,1-4.12,1.68,6.25,6.25,0,0,1-4.41-1.88L29.71,49c-1.16-1.15-2.35-2.33-3.57-3.51l0,6.58a.35.35,0,0,1-.34.35H3.17Z"/></g></g></svg>