<svg xmlns="http://www.w3.org/2000/svg" viewBox="0 0 70.81 52.99"><title>Events</title><g id="Layer_2" data-name="Layer 2"><g id="Events"><path d="M39.86,53c-6.52,0-22.08-7.26-25.13-8.72l-.1,0-.08,0a.2.2,0,0,0-.13.12,4.19,4.19,0,0,1-3.86,2.66H1.26A1.26,1.26,0,0,1,0,45.79V22a1.27,1.27,0,0,1,1.26-1.26,1.07,1.07,0,0,1,.25,0L13.6,23.22a4.21,4.21,0,0,1,3.22,3,.22.22,0,0,0,.22.16h.06A30.82,30.82,0,0,1,25,25.24c2.82,0,4.95,1,7.21,2.11a25.73,25.73,0,0,0,6.4,2.36c5.52,1.12,10.93,2.56,11.33,6.72a.22.22,0,0,0,.22.2h.06c3.23-.92,9.06-2.48,11.89-2.48,5.12,0,8.69,2.35,8.69,5.72A1.26,1.26,0,0,1,70.05,41c-1.08.47-2.68,1.26-4.71,2.26l-.13.06C57.39,47.18,45.57,53,39.86,53ZM25,27.76A28.51,28.51,0,0,0,16.93,29a.2.2,0,0,0-.15.18L15,41.45a.25.25,0,0,0,.12.24c5,2.44,19.26,8.78,24.71,8.78,5.12,0,17.09-5.88,24.24-9.4l.48-.24c1.3-.63,2.43-1.19,3.36-1.62a.26.26,0,0,0,.11-.14.2.2,0,0,0,0-.17c-.84-1.55-3.58-2.24-5.92-2.24-2.88,0-10.35,2.11-13,2.92H48.9a.21.21,0,0,0-.13,0l-.11.11-.13.12c-1.1.83-2.85,1.24-5.2,1.24-3.69,0-8.83-1-15.71-3a1.27,1.27,0,0,1-.85-1.57,1.25,1.25,0,0,1,1.21-.9,1.12,1.12,0,0,1,.36,0c6.59,2,11.65,3,15,3,2.17,0,3.18-.42,3.64-.77a1.09,1.09,0,0,0,.48-1c0-2-2.72-3.35-9.38-4.71a28.2,28.2,0,0,1-7-2.55C29,28.58,27.25,27.76,25,27.76ZM2.74,23.63a.24.24,0,0,0-.14.05.23.23,0,0,0-.08.17V44.31a.22.22,0,0,0,.22.22h7.82a1.71,1.71,0,0,0,1.69-1.46l2.21-15.46a1.71,1.71,0,0,0-1.35-1.91L2.79,23.63Z"/><path d="M47.28,26.27a1.27,1.27,0,0,1-.89-.36L35.21,14.82a8.59,8.59,0,0,1-2.55-6.14A8.68,8.68,0,0,1,41.34,0a8.6,8.6,0,0,1,5.79,2.23.2.2,0,0,0,.15.06.22.22,0,0,0,.15-.06A8.58,8.58,0,0,1,53.22,0a8.68,8.68,0,0,1,6.14,14.82L48.16,25.91A1.25,1.25,0,0,1,47.28,26.27ZM41.34,2.52A6.17,6.17,0,0,0,37,13l10.14,10a.24.24,0,0,0,.16.07.26.26,0,0,0,.16-.07L57.58,13a6.15,6.15,0,1,0-9.29-8,1.3,1.3,0,0,1-2,0A6.11,6.11,0,0,0,41.34,2.52Z"/></g></g></svg>