<svg xmlns="http://www.w3.org/2000/svg" viewBox="0 0 70.81 52.99"><title>Event_Active</title><g id="Layer_2" data-name="Layer 2"><g id="Event_Active"><path d="M39.86,53c-6.52,0-22.08-7.26-25.13-8.72l-.1,0-.08,0a.2.2,0,0,0-.13.12,4.19,4.19,0,0,1-3.86,2.66H1.26A1.26,1.26,0,0,1,0,45.79V22a1.27,1.27,0,0,1,1.26-1.26,1.07,1.07,0,0,1,.25,0L13.6,23.22a4.21,4.21,0,0,1,3.22,3,.22.22,0,0,0,.22.16h.06A30.82,30.82,0,0,1,25,25.24c2.82,0,4.95,1,7.21,2.11a25.73,25.73,0,0,0,6.4,2.36c5.52,1.12,10.93,2.56,11.33,6.72a.22.22,0,0,0,.22.2h.06c3.23-.92,9.06-2.48,11.89-2.48,5.12,0,8.69,2.35,8.69,5.72A1.26,1.26,0,0,1,70.05,41c-1.08.47-2.68,1.26-4.71,2.26l-.13.06C57.39,47.18,45.57,53,39.86,53Z"/><path d="M47.28,26.27a1.27,1.27,0,0,1-.89-.36L35.21,14.82a8.59,8.59,0,0,1-2.55-6.14A8.68,8.68,0,0,1,41.34,0a8.6,8.6,0,0,1,5.79,2.23.2.2,0,0,0,.15.06.22.22,0,0,0,.15-.06A8.58,8.58,0,0,1,53.22,0a8.68,8.68,0,0,1,6.14,14.82L48.16,25.91A1.25,1.25,0,0,1,47.28,26.27Z"/></g></g></svg>