<svg xmlns="http://www.w3.org/2000/svg" viewBox="0 0 60.58 60.58"><title>OK</title><g id="Layer_2" data-name="Layer 2"><g id="OK"><path d="M26.13,40.69a2,2,0,0,1-1.43-.6l-9.32-9.57a2,2,0,0,1-.57-1.42,2,2,0,0,1,3.43-1.37l7.6,7.81a.51.51,0,0,0,.36.15.49.49,0,0,0,.34-.14L42.48,20.44a2,2,0,0,1,2.82.07,2,2,0,0,1,.55,1.43,2,2,0,0,1-.62,1.39L27.5,40.14A2,2,0,0,1,26.13,40.69Z"/><path d="M30.29,60.58A30.29,30.29,0,1,1,60.58,30.29,30.33,30.33,0,0,1,30.29,60.58ZM30.29,4a26.3,26.3,0,1,0,26.29,26.3A26.33,26.33,0,0,0,30.29,4Z"/></g></g></svg>