<svg xmlns="http://www.w3.org/2000/svg" viewBox="0 0 65.54 65.53"><title>Verified</title><g id="Layer_2" data-name="Layer 2"><g id="Verified"><path d="M42.06,65.53a7.41,7.41,0,0,1-4.39-2c-1.17-1-2.37-2-3.56-3A2,2,0,0,0,32.83,60a1.86,1.86,0,0,0-1.23.55c-.63.55-1.25,1.06-1.9,1.6l-.37.3-.35.32a12.48,12.48,0,0,1-1.09.94,7.19,7.19,0,0,1-4,1.63c-2,0-3.44-1.49-4.35-4.41-.24-.75-.4-1.53-.56-2.28s-.32-1.52-.55-2.25c-.59-2-1.09-2.36-3-2.36h-.33c-.69,0-1.38.07-2.07.13-.84.07-1.72.14-2.6.14a5,5,0,0,1-4.15-1.66,4.89,4.89,0,0,1-.42-4.36c.34-1.27.81-2.51,1.26-3.72.23-.61.46-1.22.68-1.83a2.49,2.49,0,0,0-1.2-3.41A36.45,36.45,0,0,1,3,36.94C1,35.59,0,34.06,0,32.52S1,29.41,3,28l.25-.18c1-.73,2.11-1.49,3.23-2.14,1.55-.88,2-2.06,1.3-3.82-.2-.56-.41-1.1-.62-1.65-.45-1.21-.93-2.47-1.28-3.72a4.81,4.81,0,0,1,.48-4.23,4.81,4.81,0,0,1,3.95-1.7h.47a38.23,38.23,0,0,1,4.13.3l.78.08.45,0a2.17,2.17,0,0,0,2.25-1.92c.18-.67.33-1.34.47-2,.07-.34.14-.68.22-1l0-.16a15.22,15.22,0,0,1,.85-2.69C20.84,1.1,22.17,0,23.79,0A5.57,5.57,0,0,1,27,1.25c.9.66,1.74,1.4,2.56,2.11.47.41.94.82,1.42,1.22,1,.77,1.45,1.11,1.92,1.11s.94-.33,1.85-1.06c.52-.42,1-.86,1.52-1.3C37,2.68,37.79,2,38.6,1.39A5.88,5.88,0,0,1,42,0c1.74,0,3.08,1.21,3.9,3.48a25,25,0,0,1,.81,3.11c.12.59.25,1.18.4,1.76.57,2.18,1.15,2.74,2.83,2.74.34,0,.73,0,1.16-.07a29.71,29.71,0,0,1,3.48-.24c.45,0,.91,0,1.36.06a4.57,4.57,0,0,1,3.46,1.59A4.55,4.55,0,0,1,60,16.18a26.83,26.83,0,0,1-1.54,4.61C57,24.28,57.11,24.5,60.25,26.6a19.32,19.32,0,0,1,4,3.31c1.83,2.12,1.69,4.35-.38,6.28a27.24,27.24,0,0,1-3.22,2.44c-.37.25-.74.5-1.09.76C57.25,41,57.09,41.5,58,44.06c.2.53.42,1.06.64,1.6.32.79.65,1.61.93,2.42.68,2.15.6,3.83-.24,5S56.9,54.8,54.6,54.8h-.87a.19.19,0,0,1-.18-.28l0,0H49.48a1.81,1.81,0,0,0-2,1.47c-.3,1.1-.54,2.13-.74,3-.07.28-.13.57-.18.85s-.12.59-.19.86C45.54,63.89,44.09,65.53,42.06,65.53ZM16,50.35c3.5,0,5.2,1.42,6.29,5.22a9,9,0,0,1,.28,1.35,10.05,10.05,0,0,0,.19,1c.31,1.19.71,2.4,1.19,3.82l1.33-1.09c.8-.66,1.5-1.23,2.19-1.86,2.18-2,3.9-2.88,5.56-2.88s3.33.87,5.46,2.83c.18.16.34.33.51.49a10.85,10.85,0,0,0,1.27,1.11,9.18,9.18,0,0,0,1,.72l.64.41.2-.29a1.71,1.71,0,0,0,.31-.54c.37-1.36.74-2.77,1-4.19.8-4.18,3-6.21,6.86-6.21a11.15,11.15,0,0,1,1.48.1c1,.13,1.95.18,2.89.23H55c.77,0,1.17-.09,1.32-.29s.1-.72-.22-1.67c-.25-.76-.55-1.52-.85-2.25s-.6-1.51-.85-2.28c-1.17-3.79-.5-5.72,2.75-7.93.52-.36,1-.69,1.56-1s1.29-.81,1.9-1.24c.81-.6,1.14-1,1.14-1.31s-.3-.69-1.05-1.29-1.59-1.14-2.39-1.68c-.58-.39-1.16-.77-1.72-1.18-2.79-2-3.42-3.7-2.61-7.08a20.48,20.48,0,0,1,.74-2.12l.42-1.08c.28-.71.57-1.45.78-2.17s.29-1.25.14-1.45-.53-.28-1.34-.28a32.79,32.79,0,0,0-3.57.27,10,10,0,0,1-1.06.05c-3.62,0-5.82-1.83-6.73-5.6a7.45,7.45,0,0,1-.19-1A7.26,7.26,0,0,0,43,7c-.38-1-.73-2-1.25-3.73L40.19,4.55c-.76.64-1.45,1.22-2.13,1.81C36,8.23,34.3,9.06,32.7,9.06s-3.29-.86-5.43-2.79l-.83-.76c-.58-.53-1.15-1-1.75-1.55a1.27,1.27,0,0,0-.77-.36c-.41,0-.61.44-.71.82L23.06,5a25.49,25.49,0,0,0-.72,3.11c-.76,4.47-2.94,6.55-6.89,6.55a13.71,13.71,0,0,1-1.64-.1l-1.44-.12L10.9,14.3h-.3a1.19,1.19,0,0,0-1,.38,1.62,1.62,0,0,0,0,1.41c.28.79.61,1.61.93,2.4.22.53.44,1.07.64,1.61,1.54,4.2.8,6.45-2.94,8.91-1.16.78-2.4,1.65-3.68,2.58-.32.23-.69.58-.69,1a1.24,1.24,0,0,0,.64.93c.84.63,1.72,1.22,2.58,1.81.61.41,1.21.82,1.8,1.24,2.91,2,3.56,3.79,2.67,7.18a13.6,13.6,0,0,1-.62,1.69l-.36.91c-.36,1-.73,1.94-1,2.94a1.19,1.19,0,0,0,0,1,1.13,1.13,0,0,0,.94.32h.12c.72,0,1.45-.08,2.19-.12s1.42-.06,2.14-.11C15.33,50.37,15.67,50.35,16,50.35Z"/><path d="M29.31,43.41c-.54,0-1.09-.34-1.91-1.18-1.87-2-3.75-4-5.62-6a2.8,2.8,0,0,1-1-2A1.76,1.76,0,0,1,21.46,33a1.72,1.72,0,0,1,1.12-.47,2.81,2.81,0,0,1,1.82,1c1.47,1.43,3,2.86,5.11,4.76l0,0a15.84,15.84,0,0,0,1-1.23c3.79-4.95,7.41-9.73,10.76-14.22A2.1,2.1,0,0,1,43,21.78a1.7,1.7,0,0,1,1,.34,1.85,1.85,0,0,1,.81,1.2A2.29,2.29,0,0,1,44.19,25c-1.53,2-3.07,4.05-4.62,6.08l-2,2.6c-2.12,2.81-4.25,5.59-6.42,8.4C30.42,43,29.89,43.41,29.31,43.41Z"/></g></g></svg>